<svg width="136" height="180" viewBox="0 0 136 180" fill="none" xmlns="http://www.w3.org/2000/svg">
<path d="M93.0616 22.3029L121.03 22.7675L66.8632 79.4539L38.4029 78.9893L93.0616 22.3029Z" fill="#181616"/>
<path d="M1.67981 77.1307L16.369 103.151H44.3702C41.0039 99.4335 32.2516 87.8175 27.8449 82.2418C25.6716 79.4919 23.8432 72.9749 26.4678 65.9793C29.1649 58.7902 38.4027 51.1107 41.616 46.9289L87.0606 0H59.0594L42.5341 16.2625C21.4184 37.6361 11.7786 49.7168 5.35209 55.7571C-0.580088 61.3328 -1.22743 72.6392 1.67981 77.1307Z" fill="#27F8C6"/>
<path d="M133.882 102.221L119.193 76.2014H91.192C94.5583 79.9186 103.311 91.5346 107.717 97.1103C109.891 99.8602 111.719 106.377 109.094 113.373C106.397 120.562 97.1595 128.241 93.9463 132.423L48.5016 179.352H76.5029L93.0282 163.09C114.144 141.716 123.784 129.635 130.21 123.595C136.142 118.019 136.79 106.713 133.882 102.221Z" fill="#27F8C6"/>
<path d="M68.2735 100.294L96.2416 100.758L42.0751 157.445L13.6148 156.98L68.2735 100.294Z" fill="#181616"/>
</svg>
